
<svg width="48" height="48" viewBox="0 0 48 48" fill="none" xmlns="http://www.w3.org/2000/svg">
<g clip-path="url(#clip0_669_3100)">
<path fill-rule="evenodd" clip-rule="evenodd" d="M23.8812 1C18.212 1.00296 12.7287 3.02092 8.41172 6.69305C4.09479 10.3652 1.22572 15.452 0.317546 21.044C-0.59063 26.636 0.521292 32.3684 3.45451 37.2164C6.38774 42.0643 10.951 45.7115 16.3283 47.5059C17.5146 47.7272 17.9614 46.9883 17.9614 46.36C17.9614 45.7317 17.9377 43.91 17.9298 41.9184C11.2864 43.3608 9.8826 39.101 9.8826 39.101C8.7991 36.3349 7.23315 35.6078 7.23315 35.6078C5.06614 34.1299 7.3953 34.1576 7.3953 34.1576C9.79562 34.3275 11.0571 36.6194 11.0571 36.6194C13.1845 40.2667 16.6446 39.2116 18.0049 38.5952C18.2185 37.0501 18.8393 35.999 19.5234 35.4023C14.2166 34.8017 8.64092 32.7548 8.64092 23.6108C8.60803 21.2394 9.48865 18.9461 11.1006 17.2054C10.8554 16.6047 10.0368 14.1785 11.3339 10.8829C11.3339 10.8829 13.3388 10.2427 17.9021 13.3289C21.8163 12.2592 25.946 12.2592 29.8602 13.3289C34.4196 10.2427 36.4205 10.8829 36.4205 10.8829C37.7215 14.1706 36.903 16.5968 36.6578 17.2054C38.2748 18.9464 39.1573 21.2437 39.1214 23.6187C39.1214 32.7824 33.5338 34.8017 28.2191 35.3905C29.0733 36.1334 29.8365 37.5836 29.8365 39.8122C29.8365 43.0051 29.8088 45.5736 29.8088 46.36C29.8088 46.9962 30.2398 47.7391 31.4499 47.5059C36.8278 45.7113 41.3915 42.0634 44.3247 37.2147C47.2578 32.3659 48.3692 26.6326 47.46 21.0401C46.5507 15.4476 43.6803 10.3607 39.3619 6.68921C35.0435 3.01771 29.5589 1.00108 23.8891 1H23.8812Z" fill="#107AF2"/>
<path d="M9.04376 35.264C8.99236 35.3826 8.80255 35.4181 8.64833 35.3351C8.4941 35.2522 8.37944 35.098 8.4348 34.9755C8.49016 34.853 8.67601 34.8214 8.83024 34.9044C8.98446 34.9874 9.10308 35.1455 9.04376 35.264Z" fill="#107AF2"/>
<path d="M10.0124 36.3428C9.93054 36.384 9.83685 36.3955 9.7474 36.3753C9.65795 36.3551 9.57831 36.3045 9.52209 36.2321C9.36787 36.0662 9.33622 35.837 9.45485 35.7342C9.57348 35.6315 9.78704 35.6789 9.94126 35.8449C10.0955 36.0108 10.1311 36.24 10.0124 36.3428Z" fill="#107AF2"/>
<path d="M10.9537 37.7141C10.8074 37.8168 10.5582 37.7141 10.4198 37.5086C10.3816 37.4717 10.3511 37.4275 10.3303 37.3786C10.3096 37.3298 10.2988 37.2772 10.2988 37.2241C10.2988 37.171 10.3096 37.1184 10.3303 37.0695C10.3511 37.0206 10.3816 36.9764 10.4198 36.9396C10.5662 36.8408 10.8153 36.9396 10.9537 37.1411C11.0921 37.3426 11.0961 37.6113 10.9537 37.7141Z" fill="#107AF2"/>
<path d="M12.231 39.0417C12.1005 39.1879 11.8356 39.1484 11.6181 38.9509C11.4006 38.7533 11.3492 38.4846 11.4796 38.3423C11.6101 38.2001 11.8751 38.2396 12.1005 38.4332C12.3259 38.6268 12.3694 38.8995 12.231 39.0417Z" fill="#107AF2"/>
<path d="M14.0222 39.8163C13.9628 40.002 13.6939 40.085 13.425 40.006C13.1561 39.9269 12.9782 39.7056 13.0296 39.516C13.081 39.3263 13.3539 39.2394 13.6267 39.3263C13.8996 39.4132 14.0736 39.6227 14.0222 39.8163Z" fill="#107AF2"/>
<path d="M15.9758 39.9506C15.9758 40.1442 15.7544 40.3102 15.4697 40.3141C15.185 40.3181 14.9517 40.16 14.9517 39.9664C14.9517 39.7728 15.1731 39.6068 15.4578 39.6029C15.7425 39.5989 15.9758 39.753 15.9758 39.9506Z" fill="#107AF2"/>
<path d="M17.7947 39.6463C17.8303 39.84 17.6326 40.0415 17.3479 40.0889C17.0631 40.1363 16.814 40.0217 16.7784 39.8321C16.7428 39.6424 16.9485 39.4369 17.2253 39.3855C17.5021 39.3342 17.7591 39.4527 17.7947 39.6463Z" fill="#107AF2"/>
</g>
<defs>
<clipPath id="clip0_669_3100">
<rect width="47.7612" height="48" fill="white"/>
</clipPath>
</defs>
</svg>
