<svg width="25" height="25" viewBox="0 0 25 25" fill="none" xmlns="http://www.w3.org/2000/svg">
<path opacity="0.5" d="M17.7817 16.8746L24.2654 23.3571M17.7042 3.61335C18.5802 4.47659 19.2768 5.50467 19.7537 6.63834C20.2307 7.77201 20.4785 8.98886 20.483 10.2188C20.4875 11.4487 20.2486 12.6673 19.78 13.8044C19.3114 14.9416 18.6224 15.9747 17.7527 16.8443C16.8829 17.714 15.8497 18.4029 14.7125 18.8714C13.5754 19.3399 12.3567 19.5787 11.1268 19.5741C9.89692 19.5695 8.6801 19.3215 7.54647 18.8445C6.41285 18.3674 5.38484 17.6708 4.52168 16.7946C2.82533 15.036 1.88724 12.6816 1.90932 10.2383C1.93141 7.7949 2.91189 5.45789 4.63975 3.73019C6.36762 2.00248 8.70472 1.02222 11.1481 1.00037C13.5914 0.978523 15.9457 1.91683 17.7042 3.61335V3.61335Z" stroke="#6A6B6A" stroke-width="1.95"/>
</svg>
